<svg xmlns="http://www.w3.org/2000/svg" width="619" height="304.989" viewBox="0 0 619 304.989">
  <path id="layer-1" d="M24.2,317.5V215.786c.29,2.587.894,5.068,3.271,6.185a10.7,10.7,0,0,1,.25-4.756,11.505,11.505,0,0,0,4.822,5.637,20.568,20.568,0,0,1-.985-9.658c1.56,4.426,3.44,9.242,7.6,11.486a5.579,5.579,0,0,0-.51-3.18,7.231,7.231,0,0,0,3.219,3.131,23.674,23.674,0,0,1-1.159-9.876c1.088,4.738,2.708,10.14,7.224,12.048a3.149,3.149,0,0,0-.261-1.931,10.858,10.858,0,0,0,5.847,3.628,16.14,16.14,0,0,1-4.461-10.734c3.321,5.77,7.663,11.756,14.184,13.323a26,26,0,0,1-4.312-5.441,8.684,8.684,0,0,1-.887-6.7A24.461,24.461,0,0,0,69.1,230.664a9.788,9.788,0,0,1-3.188-4.919q4.309,3.147,8.855,5.96a68.779,68.779,0,0,0-8.194-8.141A54.957,54.957,0,0,1,80.023,231.7a14.037,14.037,0,0,1-3.665-9.581,21.016,21.016,0,0,0,8.322,11.172c.139,0,.276,0,.413-.009L82.013,227c1.543,1.031,3.079,3.733,4.617,6.233l.877-.032c-1.075-2.206-2.048-5.438-1.823-7.469a11.224,11.224,0,0,0,3.908,5.613q-.409-1.994-.82-3.99a7.475,7.475,0,0,0,3.857,4.07,21.078,21.078,0,0,0-1.7-2.959,8.16,8.16,0,0,0,4.617,2.993,14.958,14.958,0,0,1-3.475-6.127,42.542,42.542,0,0,0,6.665,5.71,4.318,4.318,0,0,0-1.251-2.23,13.042,13.042,0,0,0,3.676,2.231l-3.024-4.784a28.882,28.882,0,0,0,4.843,4.594,12.459,12.459,0,0,1-1.388-6.7c1.043,2.686,2.256,5.576,4.72,6.973a3.885,3.885,0,0,0-.7-2.47,6.953,6.953,0,0,0,3.064,1.719,12.944,12.944,0,0,1-2.407-5.827l5.5,5.624c.537-1.211-.3-2.543-.839-3.754a8.628,8.628,0,0,1,.41-7.677,14.578,14.578,0,0,0,5.627,11.6c-1.114-2.33-2.258-4.838-1.913-7.407a13.133,13.133,0,0,0,4.556,6.337,13.149,13.149,0,0,0-1.539-3.49,35.965,35.965,0,0,0,7.23,4.356,67.155,67.155,0,0,1-5.4-7.889l5.967,4.322a27.886,27.886,0,0,1,4.016,3.324,9.956,9.956,0,0,1-.506-5.789,7.7,7.7,0,0,0,2.869,6.16c-.093-1.008-.184-2.019-.278-3.026a4.744,4.744,0,0,0,2.464,2.721q-.568-2.048-1.136-4.1a14.98,14.98,0,0,0,5.561,5.234,8.588,8.588,0,0,1-1.643-5.84,9.78,9.78,0,0,0,4.366,5.98,4.3,4.3,0,0,0-.77-1.845,9.153,9.153,0,0,0,3.316,2.31c-1.337-2.21-2.722-4.856-1.8-7.281.724,3.185,1.676,6.7,4.223,8.552l.361.047a15.312,15.312,0,0,1-1.829-5.528,22.4,22.4,0,0,0,4.933,5.967c.36.054.719.105,1.079.16a17.3,17.3,0,0,1-.6-6.151,48.068,48.068,0,0,0,4.429,6.079,7.009,7.009,0,0,1,.472-6.342,7,7,0,0,0,1.121,5.774,18.085,18.085,0,0,1,.265-4.193,4.957,4.957,0,0,0,.929,3.812,21.229,21.229,0,0,1,.363-3.826,7.171,7.171,0,0,0,2.253,4.541q.014-1.231.028-2.463a11.348,11.348,0,0,0,5,4.9,12.894,12.894,0,0,0-1.806-4.686,34.229,34.229,0,0,0,7.217,5.49,9.688,9.688,0,0,1-1.233-4.855,13.221,13.221,0,0,0,3.027,4.445q-.123-1.5-.247-2.993a12.944,12.944,0,0,0,4.942,3.97,10.45,10.45,0,0,1-1.186-5.468,17.592,17.592,0,0,0,3.29,5.574c.1-.838.2-1.678.306-2.516a13.324,13.324,0,0,1,1.949,2.311,10.322,10.322,0,0,1,1.118-5.284,15.985,15.985,0,0,0-.377,4.376,5.294,5.294,0,0,0,1.922,3.792,12.618,12.618,0,0,1,.236-6.949c.023,1.93.091,4,1.218,5.551.032-.861.065-1.72.1-2.58A7.6,7.6,0,0,0,190,240.367a21.513,21.513,0,0,1-2.01-6.953,23.913,23.913,0,0,1,6.492,8.807l.08.02q-.531-3.206-1.063-6.411A10.912,10.912,0,0,0,198,242.1a10.066,10.066,0,0,1-.83-7.3,10.36,10.36,0,0,0,5.085,7.927q-.587-2.153-1.176-4.308a9.193,9.193,0,0,0,5.811,5.15,10.9,10.9,0,0,1-3.084-6.246q3.748,4.02,7.358,8.171a11.619,11.619,0,0,1-1.412-7.672,13.761,13.761,0,0,0,4.571,7.68,11.248,11.248,0,0,1-.845-5.364q2.053,2.453,4.108,4.9c.312.375.627.76.933,1.153-.01-.041-.027-.077-.037-.117a9.551,9.551,0,0,1,1.24-6.808,9.441,9.441,0,0,0,1.284,7.724q.151-2.777.3-5.551a11.692,11.692,0,0,0,2.665,6.27,17.248,17.248,0,0,0-.22-4.774,8.149,8.149,0,0,0,3.873,5.029,27.272,27.272,0,0,1-1.434-7.212,12.628,12.628,0,0,0,5.934,7.08,2.1,2.1,0,0,0-.56-2.141,23.094,23.094,0,0,0,7.308,3.813c.062,0,.124.009.184.015a13.74,13.74,0,0,1-4.213-6.959c2.718,1.443,3.8,5.171,6.623,6.387q-.549-2.169-1.275-4.289a13.02,13.02,0,0,0,5.654,5.27q-.54-2.28-1.079-4.562a15.372,15.372,0,0,0,2.541,3.67,32.041,32.041,0,0,1,.284-5.154,13.1,13.1,0,0,0,2,5.078q.213-1.935.426-3.87a38.642,38.642,0,0,0,2.918,5.019h.043a19.687,19.687,0,0,1-.11-7.961,14.269,14.269,0,0,0,3.258,7.927h.005q-.138-3.232-.276-6.46a21.425,21.425,0,0,0,3.578,5.187q-.271-2.859-.542-5.717a10.25,10.25,0,0,0,5.072,6.643c.3-.02.607-.049.911-.071-.581-1.843-1.232-3.657-1.965-5.427a15,15,0,0,0,6.6,5.039c.376-.035.751-.075,1.128-.112a44.158,44.158,0,0,1-3.04-5.481,12.567,12.567,0,0,0,7.728,5l.29-.032a10.458,10.458,0,0,1-3.082-8.05,14.478,14.478,0,0,0,4.706,7.284,5.789,5.789,0,0,0-.623-3.8,21.93,21.93,0,0,0,7.314,3.636c.453-.051.905-.1,1.358-.148A17.243,17.243,0,0,0,282.8,242.7a44.069,44.069,0,0,0,8.45,4.247l.144-.014a12.283,12.283,0,0,1-1.316-8.25,21.646,21.646,0,0,0,3.124,8.076l.423-.038a16.808,16.808,0,0,0,.211-4.958,7.434,7.434,0,0,0,.931,2.734q.128-.583.248-1.168c.447-2.187.059-4.568,1.564-6.506a1.961,1.961,0,0,0,.227-.617,9.657,9.657,0,0,0,.148-5.419c-.521-2.054-1.1-4.129-.449-6.287a1.268,1.268,0,0,0-.138-.839,16.085,16.085,0,0,1-1-1.813,10.389,10.389,0,0,1-.23-2.15c.437.177.958.763,1.4.921.543.193.748,1.1,1.209.973a26.238,26.238,0,0,1,10.789-.868,42.666,42.666,0,0,0,6.329-.63c2.146-.433,4.318-1.311,6.451-.834,1.663.373,3.094,1.541,4.75,1.951.747.186,1.526.212,2.263.442,2.435.755,5.026,3.742,6.067,5.981.166.358.33.7.495,1.028l.06.025a30.208,30.208,0,0,1-1.164-6.251,8.7,8.7,0,0,1,.13-2.787,8.975,8.975,0,0,1,.726-1.828,11.43,11.43,0,0,1-1.292-4.606,12.717,12.717,0,0,1,.174-1.8q.138-.94.275-1.883a20.047,20.047,0,0,1,.356,3.889,7.57,7.57,0,0,0,.9,3.585q1.022-2,2.045-3.99a11.158,11.158,0,0,1,1.849-2.841,12.922,12.922,0,0,1-1.487,4.332c.053-.046.1-.1.156-.141.593-.464,1.3-.76,1.935-1.163.266-.169.518-.355.8-.5a3.1,3.1,0,0,1,1.541-.368c-1.523,1.285-3.5,1.969-4.939,3.346-.1.092-.187.19-.276.288-.427.941-.918,2.2-1.2,2.7a3.807,3.807,0,0,0-.5,3.4,16.867,16.867,0,0,1,4.824-5.31c-.425,1.536-1.872,2.626-2.908,3.9a8.694,8.694,0,0,0-1.634,3.2c.219,1.342.45,2.514.758,3.79a12.324,12.324,0,0,1,.428-1.457,5.1,5.1,0,0,1,.815-1.3,4.991,4.991,0,0,1,.861-.8c.508-.4.937-.76,1.36-1.1a7.959,7.959,0,0,1,1.421-2.43,1.825,1.825,0,0,1,.92-.759,19.65,19.65,0,0,1-1.083,2.271c.254-.167.522-.336.823-.506a5.176,5.176,0,0,1,1.278-.459.657.657,0,0,1,.091-.356,3.144,3.144,0,0,1,.151.3,5.823,5.823,0,0,1,1.609-.147c-.124.454-.865.511-1.4.67a8.255,8.255,0,0,1,.465,2.143c.014.348.013.661.009.967a22.187,22.187,0,0,1,.986-2.169,2.443,2.443,0,0,1-.109,1.185,9.6,9.6,0,0,1-.952,2.539c-.04.538-.091,1.088-.142,1.737a6.7,6.7,0,0,1-.159,1.162,6.256,6.256,0,0,1-.488,1.4,12.218,12.218,0,0,1-.739,1.168c.914-.456,1.738-.921,2.657-1.49a10.09,10.09,0,0,0,1.342-3.136c.382-1.572.49-3.38,1.276-4.589a22.1,22.1,0,0,1-1.4,6.963,3.4,3.4,0,0,0,1.922-2.314c.193-.514.785-1.627,1.2-2.506.026-.129.051-.258.07-.39.289-1.96-.066-3.983.13-5.964a3.767,3.767,0,0,1,.38,1.484c.018.313,0,.628,0,.941,0,.752.095,1.5.04,2.253,0,.071-.019.138-.027.207a13.7,13.7,0,0,1,2.106-3.65,13.716,13.716,0,0,1-1.037,3.119l-1.672,3.923a4.845,4.845,0,0,0,2.584-1.254,14.631,14.631,0,0,1,2.557-1.875l-1.062,1.277a11.068,11.068,0,0,1-1.049,1.151,7.2,7.2,0,0,1-3.381,1.5,9.861,9.861,0,0,1-.841,1.622,7.175,7.175,0,0,1-1.681,1.663,19.2,19.2,0,0,1-6.713,3.339c.074.168.15.335.231.5s.167.3.251.447a13.45,13.45,0,0,1,2.183,2.428.479.479,0,0,1,.114.282.489.489,0,0,1-.2.31,3.611,3.611,0,0,1-2.412,1.029c.014.282.041.563.076.842,2.641-.581,7.2-.212,11.448.155,4.059.353,7.826.706,9.336.227,2.956-.936,21.372-4.2,46.371-8.413-.725-3.924-1.471-7.809-1.852-9.606-.779-3.665-1.99-14.387-5.528-29.963s-4.822-37.093-4.694-40.724c-1.52,1.074-2.042-.072-2.042-.072s-.982-4.361-1.587-6.537,1.394-3.924,2.26-6.056,2.179-6.848,1.809-9.253,2.941-12.739,2.978-13.755.8-6.225.8-6.225a24.268,24.268,0,0,1-6.617,6.928c-4.542,3.246-7.229,2.124-8.743-.31-1.495-2.435-1.86-4.956-3.236-7.95-1.375-3.013-.011-12.507-.256-13.534-1.135-.04-.923-2.988-.9-3.722s1.3-1.209,1.3-1.209.273-2.827-.166-3.242a11.6,11.6,0,0,1-1.872-3.356c-1.94.149-3.934-1.34-4.469-3.913-.588-7.291,4.97-7.15,5.873-6.989s2.376.41,2.333.083-.564-5.094.688-6.583,5.087-1.466,6.135-1.273a54.8,54.8,0,0,1,8.279,3.619c.661.56,4.733,3.432,6.6,4.024s3.073,1.526,3.324.855a9.967,9.967,0,0,0,.168-2.152c.006-.452,0-1.111,0-1.732-.009-.906-.024-1.733-.024-1.733a28.024,28.024,0,0,1-.255-5.521c-.8-.138-6.837-2.8-7.411-4.29-1.261-2.888,3.289-1.481,4.413-.87a16.926,16.926,0,0,0,4.48,1.8,23.919,23.919,0,0,1,7.975-8.808c1.551-1.109,2.967-.4,4.381-.3a3.293,3.293,0,0,1,2.8,1.354c.651.877,3.334,2.1,3.334,2.1a17.26,17.26,0,0,0,3.066,1.709c4.142,1.619,2.144,6.719,1.264,9.244s-1.737,4.137-.967,4.682c4.525,2.37,8.148,7.333,4.893,7.9a7.554,7.554,0,0,1-4.684-1.093c-1.205-.651-2.023-1.3-2.055-1.136a10.805,10.805,0,0,0,1.17,5.44c2.294-.6,4.072.543,5.771,3.894,6.467.119,6.567,7.049,6.944,12.289,3.28.572,5.652,4.172,6.006,7.031,6.809,3.3,6.407,11.588,6.708,12.843a22.907,22.907,0,0,0,1.313,4.483c1.038,2.764-.383,17.257-.409,17.937s-2.158.15-2.158.15-.02.563-.346,3.061c-.306,2.479-2.976,7.049-4.362,7.681A33.391,33.391,0,0,1,438.865,151c1.619,2.565.85,8.328.817,9.29a27.819,27.819,0,0,0,1.267,5.781c.8,2.992,2.052,6.218,2.264,9.97s2.459,10.649,2.715,13.166c.248,2.5,1.916,3.358,3.336,5.117s.211,3.527.13,5.8,3.9,5.257,6.5,8.983c1.213,1.742,3.072,7.7,4.744,13.8,32.868-5.373,66.836-10.835,89.969-14.539l1.581-51.47-3.923-.106-4.941-2.083-3.446-1.911-3.677-1.562-2.757-1.389-1.149-3.472,4.6-1.389-4.825-2.083-4.6,1.736-5.055.52-5.055-1.736v-1.735l-3.907,1.215-5.515-.52.23-3.647,4.366-1.044h2.758l5.285,1.044.689-4.167,3.218-.173,1.838,1.042,2.3.87h1.608l6.664-1.392.23-2.6,1.838-.347,2.657,1.613H544.7l1.379-3.349v-2.778l2.183-2.256,4.967-2.244.3-9.6a53.2,53.2,0,0,1-5.34-1.142c-.54-.132-1.057-.308-1.587-.46s-1.055-.312-1.564-.5l-.486-.166a39.231,39.231,0,0,1-8.407.958q-.927.016-1.848,0l.3,2.73.46,1.041,2.987,3.3-8.5-1.564L520.8,115.81l-4.6-.867-1.066-4.9-.9-.166c-1.433-.247-2.84-.574-4.254-.868a125.632,125.632,0,0,1-16.361-4.849q-5-1.882-9.695-4.17l-2.42.542-5.515-.347-4.6-.695v-2.95l5.745-1.216,4.6-1.042,4.136-1.389V90.986l-3.217-2.258-4.6.868-3.447.695-3.217.346-4.6-.346-3.676-.347L461.748,88.9l3.662-1.912,3-.694-4.6-1.909,4.826-1.216h3.676l2.068-1.736,2.3-.52h2.987l1.839-1.563.7-.15q-1.8-.868-3.514-1.823l-4.075.758-3.217-.173h-8.5l-3.447.173h-8.273l-3.677.347V77.11l1.379-2.445,3.676-1.215,3.677-.869,2.3-.695,1.379-1.909,1.148-1.216,4.352,1.563,2.083-.347.212-.321q-1.189-1.054-2.295-2.163,1.129,1.075,2.338,2.1l1.354-2.045,4.135,3.473,1.149-.522,3.447,2.778,3.906-2.951.349-2.507q-.386-.547-.767-1.094l-4.638-1.607-4.6-2.083,6.434-2.951,2.3-1.389-2.3-2.431-3.217.347-2.527.695-4.826-1.39.46-1.563-1.379-.52-5.975-1.216.689-1.215,3.662-1.214,2.313-2.083,4.135,1.736,3.447-.347,3.217-1.911,1.608-2.43,3.907.347-.23-2.777-4.6-1.389,4.366-1.39h3.676l1.608,1.563,1.839-.347,1.608-1.217h1.609l2.068,1.563,2.067.868,2.3-1.214V38.553l3.217-.868V36.644l-1.379-1.39-1.148-.521-3.447.7-2.068-.7,2.068-1.562-2.528-1.041-2.758-.52V30.394h4.136l2.987.347,2.528-.52,3.217.695,3.217,1.041,2.3-3.3-.459-1.215-2.988-.694.46-2.258h2.987V16.679l2.3-.868,1.379,1.214,2.527.347,2.3.347,3.447.175.92-2.952,2.527,1.911,1.839,2.6,1.379,2.534,2.527,1.112,3.907-1.112L537.12,19.8l2.987,2.5,1.508,2.184,3.548,1.389,3.218-2.6-.92-3.645,2.3-2.605,2.527-.694.919,2.6,1.149,3.371,2.068.8,3.677-2.951,3.447-2.256,3.447-1.563.919-2.431,1.149-1.389,2.987,1.736-2.758,3.472-.459.868,1.148,2.433,4.6-.522,2.758-2.951,3.906-1.216,3.218-2.256.919-1.563,2.987,2.431,3.676,1.041-3.676.695L585.376,19.8l2.068,2.186h5.974l1.609,3.2-.689,2.257.689,5.035-4.6,1.736,4.6,1.389,3.217.869,2.068,2.256,2.528,2.431,2.757-1.39,1.609-1.909,4.366,1.215,1.149-.522,1.838-2.431,3.26-.52,2.255,1.215,3.906-.173L627.2,37.86l3.677,3.3,2.068,1.214,4.136,1.042h2.068l1.608,3.819-3.906,1.217-5.286.867-1.608,1.042-.46,3.992,2.988.869,5.974-.522,2.3,2.083,1.839,3.125.6.228v4.208l-4.512,1.293-5.515,1.389-2.067,3.994-4.826-.522-4.6-.695-5.055.869-6.434.694,2.528-4.341h-2.758l-4.6.694-5.055,1.042-4.6,1.216v2.778l8.043,2.777,3.906,1.577,2.988,2.069L609.5,83.518l2.3,2.431,7.354,1.389,3.447,1.39-.23.868-6.2.347-8.042-1.216L603.3,87.512,599.853,85.6l-5.055-.346L589.053,86.3l-7.813.694-6.664,1.042.459-1.214L580.321,83l2.527-.868h-5.285l-3.168-.671a127.846,127.846,0,0,1-16.669,15.672l.175,5.714,4.265,1.332H566.3l-1.149,1.563-4.826.963H558.02l.5,16.355,1.805.39,3.218,2.431-2.528,1.04.46,2.433,4.136,2.43,4.136-1.391,3.217-1.039,3.217,4.216,2.987,2.731h2.987l3.907-1.045,4.136,3.472,4.366,2.431,3.447.868v1.388h-13.1l-2.758,1.91-.459,1.91,4.366,2.257,3.447.868,4.826,2.778-.689,1.736-6.434-1.736-4.6,1.736-4.136,3.647v-2.431l-5.745-1.563-5.055-.695-3.562-.694-2.182,1.041-2.441.588,1.6,51.917c11.338-1.812,18.233-2.908,18.233-2.908l-3.119,4.432a13.4,13.4,0,0,0,1.373,4.931l3.513-5.15a8.715,8.715,0,0,0-.261,5.529,12.638,12.638,0,0,1,5.384-6.022q-.41,2.326-.822,4.653a16.853,16.853,0,0,0,4.286-9.345l.134,6.592a18.3,18.3,0,0,0,1.849-8.775q.653,4.578,1.308,9.159a31.808,31.808,0,0,0,3.24-7.4q.051,3.379.1,6.758a28.252,28.252,0,0,1,7.54-10.182,28.624,28.624,0,0,0-3.682,9.918,32.684,32.684,0,0,1,4.593-5.777q-.315,2.543-.628,5.086a33,33,0,0,0,5.175-6.033q-.159,2.372-.319,4.741a34.075,34.075,0,0,0,8.931-9.431c-.257,2.417-.545,4.854-.921,7.277l5.223-5.273q-1.971,3.61-3.943,7.214c.17-.013.34-.029.51-.041a47.632,47.632,0,0,1,8.865-8.83,52.957,52.957,0,0,0-4.417,8.609c.524-.017,1.048-.033,1.572-.042l8.048-8.259a35.032,35.032,0,0,1-2.875,8.287c.031,0,.06,0,.091,0a12.264,12.264,0,0,0,4.934-6.087,9.428,9.428,0,0,1-1.379,5.477q2.51-2.331,4.892-4.79-.6,2.014-1.2,4.027a38.429,38.429,0,0,1,5.874-8.288v.721c-.872,2.5-3.022,4.65-2.979,7.3A33.653,33.653,0,0,1,643.2,200.9V316.324L403.356,317.5Zm272.929-76.35q-.7,2.389-1.234,4.827a6.273,6.273,0,0,0,.594.525c.479-.036.958-.077,1.436-.109a19,19,0,0,1-.135-6.493A4.6,4.6,0,0,0,297.129,241.151Zm9.446-6.561a.86.86,0,0,0-.321.391c-.512.958-1.1,1.823-1.678,2.741q-.914,1.451-1.833,2.9c-.051.08-.1.16-.148.241a12.527,12.527,0,0,0,5.494,4.9q-.436-2.591-.874-5.182l-.064-2.328a35.064,35.064,0,0,0,3.08,6.728,24.625,24.625,0,0,0,.167-4.933,11.327,11.327,0,0,0,3.21,4.955c.474-.085,1.076-.2,1.768-.323-.281-1.771-.564-3.542-.867-5.31l2.04,2.929c-.24-1.539-.517-3.074-.754-4.613-.113-.746-.206-1.507-.308-2.3-.875,0-1.723-.011-2.514-.04-1.021.088-2.011.143-2.2.138a10.677,10.677,0,0,1-2.277-.3c-.447-.113-1.081-.661-1.616-.661A.64.64,0,0,0,306.575,234.59Zm-4.816,10.336c.007.042.015.084.024.125q.113-1.339.135-2.686A5.223,5.223,0,0,0,301.759,244.925Zm16.777-.829.094-.018.017-.57A5.653,5.653,0,0,1,318.536,244.1Zm-17.479-9.524c-.926,1.535-1.86,3.067-2.787,4.6-.037.06-.075.12-.113.18a11.716,11.716,0,0,0,1.493,4.28q-.186-.809-.384-1.615a3.344,3.344,0,0,1,.494-2.978,11.546,11.546,0,0,0,2.02-5.542A6.22,6.22,0,0,0,301.057,234.572Zm22.981-.031c-.427,1.615-.832,3.239-1.126,4.881-.221,1.238-.437,2.48-.612,3.725l.175.2c1.161-.222,2.387-.46,3.652-.709a9.8,9.8,0,0,1,.26-2.6c.063.874.086,2.259.383,2.478,1.882-.37,3.848-.764,5.832-1.171a6.153,6.153,0,0,0-1.007-2.558,4.777,4.777,0,0,1,1.4,2.477c2.1-.43,4.2-.875,6.256-1.323q.1-.489.229-.972c-2.058-.157-3.978-2.3-5.9-3.924a12.727,12.727,0,0,1-3.092-1.054,7.863,7.863,0,0,0-2.338-.47c-.22-.012-.443-.012-.665-.014C326.316,233.8,325.132,234.233,324.039,234.542Zm-4.977.723c0,.02-.012.037-.013.057-.148,2.326-1.033,4.6-.44,6.986a2.55,2.55,0,0,1,.064.394l.149-4.864a25.552,25.552,0,0,0,1.557,2.737c-.015-1.754-.037-3.507-.084-5.26a.882.882,0,0,0-.029-.147C319.869,235.2,319.468,235.238,319.062,235.265Zm22.032-5.031c.09.031.1.156.077.249a3.128,3.128,0,0,1-2.019,2.236c-.038.012-.078.014-.116.029.044.1.087.209.13.313.72-.3,1.349-.581,1.924-.847a5.166,5.166,0,0,0,.607-.749,4.56,4.56,0,0,0-.015-1.59,9.683,9.683,0,0,0-.646-1.994,3.46,3.46,0,0,1-.309-1.085,5.473,5.473,0,0,1-.629.063,8.2,8.2,0,0,0-2.176.342,3.4,3.4,0,0,0-1.356.833,5.8,5.8,0,0,0-.173,1.1c.024.086.047.175.072.266a4.884,4.884,0,0,1,.837.582,4.987,4.987,0,0,1,.919,1.126,4.888,4.888,0,0,0,.853-.155,19.131,19.131,0,0,0,1.884-.695.308.308,0,0,1,.1-.025A.125.125,0,0,1,341.094,230.234Zm.2-3.622a1.765,1.765,0,0,1-.54.178,5.947,5.947,0,0,1,1.531,3.654c.129-.267.247-.543.356-.819a7.672,7.672,0,0,0,.551-2.109c.042-.479-.038-.958-.007-1.441a23.813,23.813,0,0,0-.068-3.469,5.617,5.617,0,0,0-.189-.893,17.1,17.1,0,0,0-2.934,1.759c-.382.293-.85.46-1.223.764a5.981,5.981,0,0,0-1.362,1.751c-.152.274-.294.554-.423.842a5.09,5.09,0,0,1,2.371-.553A5.665,5.665,0,0,1,341.292,226.611Zm78.668-19.692c-.339,3.168.029,2.272,1.335,3.9,1.306,1.647-.1,2.841.289,4.675s1,.826,1.036,3.1c.013,1.012.219,5.5.362,10.511,6.8-1.132,13.918-2.309,21.178-3.5-1.291-3.06-2.488-6.413-2.906-7.02-.658-.933-.977-1.4-.9-3.452.07-2.033-1.067-1.964-2.368-3.718-4.658-3.228-7.356-10.478-9.334-15.439s-7.032-14.226-7.032-14.226S420.3,203.75,419.96,206.919Zm153.6,5.048q-.167,1.376-.335,2.749a14.721,14.721,0,0,0,2.809-6.264ZM541.49,108.024q.755.3,1.518.578l1.464.526,1.489.477c.493.166,1,.3,1.5.442s1,.293,1.517.409c1.513.382,3.053.677,4.605.914l.143-4.666H543.554Zm-3.379,2.158-4,.186h0q.972-.009,1.939-.053a40.254,40.254,0,0,0,5.079-.521q-.737-.3-1.462-.609Zm-50.4-11.038-3.474.778q4.7,2.093,9.663,3.794a126.392,126.392,0,0,0,16.428,4.345c1.411.25,2.812.534,4.236.738l.314.049-1.431-6.579,2.528-1.736L510,99.491l-6.434,1.39-7.353,1.214-.46-1.389-5.285-.173,4.6-1.911-.919-1.562-3.447-.52Zm37.686,5.729,3.907,1.831,3.607-.778c-.75-.4-1.5-.793-2.237-1.206q-1.139-.625-2.264-1.263Zm12.639-6.423-4.136,2.431-3.753,1.762q.826.44,1.658.876c.9.476,1.815.927,2.723,1.39.32.154.638.31.958.464l2.321-.5,5.514-1.389,4.136,1.041,3.907.175,2.472-1.558.427-13.859c-.162-.1-.317-.2-.462-.3a10.124,10.124,0,0,1-1.731-1.633c-.461-.548-.9-1.088-1.346-1.633-.42-.556-.861-1.1-1.263-1.664a51.724,51.724,0,0,1-4.273-6.931.054.054,0,0,1-.006-.011h-1.861l-5.745-1.577-2.987,3.819-.46,5.035-1.378.173,6.434-.173,2.426-.521,2.169,1.562V86.99l-7.353.522-2.068,1.735-4.6.7-1.838,3.992,2.527,1.91,7.124,1.216,2.3-.868ZM394.565,72.668c-1.061.191-3.721.324-3.721.324s-.625,6.867-.485,7.327a5.148,5.148,0,0,1,.61,1.994c.035,1.054-1.721,3.648-2.512,4.709s-.143,1.7.25,3.464-.085,11.132-.085,11.132,1.827-2.591,3.5-5.03a23.844,23.844,0,0,1,7.6-11.465c1.883-1.834,5.276-1.4,5.276-1.4s-4.016-4.159-5.462-6.184c-1.4-1.955-3.767-4.875-4.883-4.875A.585.585,0,0,0,394.565,72.668Zm162.268-4.559.81,26.36a129.183,129.183,0,0,0,15.189-13.542l-3.082-1.054H566.3l-2.528-2.763,5.745-3.14,2.528-2.083-3.676-3.992-8.043-1.562ZM551.143,83.3c.437.528.912,1.036,1.364,1.553.472.506.955,1.018,1.432,1.512q.2.2.405.39l.542-17.653-4.9,2.614-5.883.842,5.423,1.937.46,2.618H546.62A53.457,53.457,0,0,0,551.143,83.3Zm-71.862-6.028q1.791.933,3.661,1.776l.176-.04-2.987-1.895Zm2.852-9.768.067-.475-.563-.194ZM223.593,242.19c.059.249.111.5.158.75Q223.655,242.57,223.593,242.19Zm70.214-.646c.009.072.017.146.025.219C293.823,241.69,293.815,241.617,293.808,241.544Zm-153.4-12.622a4.249,4.249,0,0,1,.41.48Q140.605,229.169,140.409,228.921Zm-43.138-.3c.072.059.142.121.211.185C97.411,228.75,97.34,228.688,97.271,228.626Z" transform="translate(-24.199 -12.512)"/>
</svg>
