<svg xmlns="http://www.w3.org/2000/svg" xmlns:xlink="http://www.w3.org/1999/xlink" width="618.999" height="288.741" viewBox="0 0 618.999 288.741">
  <defs>
    <linearGradient id="linear-gradient" x1="0.125" y1="0.13" x2="0.989" y2="0.921" gradientUnits="objectBoundingBox">
      <stop offset="0" stop-color="#20a299"/>
      <stop offset="1" stop-color="#1dab94"/>
    </linearGradient>
  </defs>
  <path id="mountains-layer-2" d="M.5,343.5V233.313c10.614-11.948,57.558-58.218,67.133-67.524,1.931-1.875,4.14-3.442,5.829-6.1,1.541-2.422,2.242-5.19,4.366-5.858a3.628,3.628,0,0,0,1.792-.758,11.882,11.882,0,0,0,1.716-3.609c1.151-2.934,2.766-5.04,4.522-5.895a8.87,8.87,0,0,0,2.571-1.3c1.106-1.02,1.914-3.059,2.851-4.665,1.67-2.865,3.755-4.361,5.718-6.219,4.544-4.3,8.1-10.591,12.037-16.691,2.947,3.856,4.894,9.985,7.579,14.427,3.145,5.2,7.452,6.5,10.859,11a11,11,0,0,0,2.29,2.557,10.2,10.2,0,0,0,2.162.8c1.671.638,3.2,2.37,4.687,4.094,3.227,3.735,6.324,7.934,9.451,12.025,2.363,3.091,6.761,11.182,9.563,11.536,2.276.289,4.114-8.481,5.908-12.523a62.137,62.137,0,0,1,7.891-13.418,31.745,31.745,0,0,0,4.654-6.663c1.28-2.733,2.164-6.367,3.71-8.391,1.507-1.974,3.433-2.121,4.921-4.155,2.352-3.214,3.245-10.591,5.948-12.139.957-.548,2.072-.288,2.836-1.621a19.812,19.812,0,0,0,1.045-3.058,9.6,9.6,0,0,1,3.212-4.409l8.617-7.527a3.908,3.908,0,0,0,1.432-2.216c.382-1.647-.108-3.624.031-5.433a5.135,5.135,0,0,1,3.53-4.8c5.4-2.229,10.273-7.684,15.083-13.136a8.512,8.512,0,0,1-.846.134c1.816-1.77,3.622-3.566,5.437-5.234.6,12.94,8.98,16.812,14.477,20.945,9.153,6.881,16.033,21.125,24.676,29.936,4.944,5.037,10.376,8.208,15.621,12.093a90.988,90.988,0,0,1,16.306,15.073c.2.241.391.468.584.7q-6.911-2.819-13.82-5.641c-2.351-.959-4.828-2.031-6.507-4.743-1.026-1.655-1.675-3.815-2.755-5.385a55.171,55.171,0,0,0-7.707-7.311c-5.822-3.735-7.04-8.117-12.493-13,.012.124.024.246.037.368,3.466,5.663,6.928,11.371,10.733,15.859,4.944,5.831,10.376,9.5,15.621,14a97.676,97.676,0,0,1,16.306,17.447c4.974,6.964,7.765,9.417,13.88,11.86a216.809,216.809,0,0,1,39.136,20.69,176.125,176.125,0,0,1,26.89,21.491c.681.672,1.553,2.442,2.58,5.1,6.047-24.91,11.29-44.241,14.261-47.485,12.839-14.017,25.364-29.057,37.884-44.093q5.188-6.234,10.378-12.463a76.865,76.865,0,0,0,7.472-10.083c5.684-9.575,9.785-23.969,17.09-27.795.741,2.751,2.106,4.86,3.676,5.671,5.933,3.012,9.7-6.872,12.822-14.809,7.778-19.772,5.807-6.984,13.442,6.329,8.236,14.36,84.586,167.9,119.87,241.086V343.5Z" transform="translate(-0.5 -54.76)" fill="url(#linear-gradient)"/>
</svg>
