<svg xmlns="http://www.w3.org/2000/svg" xmlns:xlink="http://www.w3.org/1999/xlink" width="625.178" height="336.031" viewBox="0 0 625.178 336.031">
  <defs>
    <linearGradient id="linear-gradient" x1="0.5" y1="1" x2="0.5" gradientUnits="objectBoundingBox">
      <stop offset="0" stop-color="#00b9be"/>
      <stop offset="0.382" stop-color="#80d7c2"/>
      <stop offset="0.762" stop-color="#fdf4c6"/>
    </linearGradient>
  </defs>
  <g id="mountains-layer-4" transform="translate(-590 2089.139)">
    <g id="Group_71" data-name="Group 71" transform="translate(590.109 -2089.139)">
      <g id="Group_49" data-name="Group 49" transform="translate(245.865 10.09)">
        <path id="Path_38" data-name="Path 38" d="M456.273,290.462c9.852-5.527,42.208-18.589,52.213-23.339a32.852,32.852,0,0,0,5.993-3.063c1.585-1.217,2.306-2.607,4.49-2.943a6.257,6.257,0,0,0,1.843-.381,5.9,5.9,0,0,0,1.765-1.813,8.57,8.57,0,0,1,4.651-2.963,14.308,14.308,0,0,0,2.643-.653c1.138-.513.631-1.9,1.6-2.7,1.718-1.44,5.2-1.829,7.217-2.763,4.672-2.162,8.327-5.321,12.379-8.387,3.029,1.938,5.033,5.017,7.794,7.248,3.233,2.613,7.664,3.268,11.167,5.528a10.234,10.234,0,0,0,2.354,1.285,18.388,18.388,0,0,0,2.224.4,16.048,16.048,0,0,1,4.819,2.056c3.318,1.877,6.5,3.986,9.719,6.042,2.43,1.553,6.953,5.618,9.834,5.8,2.342.145,4.231-4.261,6.077-6.291a37.543,37.543,0,0,1,8.115-6.742,22.9,22.9,0,0,0,4.785-3.347c1.316-1.373,2.225-3.2,3.816-4.216,1.549-.992,3.529-1.066,5.061-2.088,2.418-1.614,3.338-5.32,6.116-6.1.984-.276,2.13-.145,2.917-.814a7.505,7.505,0,0,0,1.075-1.537,7.261,7.261,0,0,1,3.3-2.215l8.861-3.782a2.621,2.621,0,0,0,1.472-1.113c.393-.827-.111-1.82.032-2.729.248-1.569,2.119-2.109,3.629-2.413,7.327-1.476,16.406-9.435,20.234-9.162s9.234,9.775,14.887,12.179c9.413,4,16.487,12.285,25.376,17.407,5.083,2.93,10.67,4.773,16.064,7.032,18.608,7.791,78.306,130.183,90.58,146.6,2.426,3.247,4.76,6.807,5.245,10.878.693,5.807,6.167,84.188,1.589,87.631s-10.219,4.987-15.776,6.1c-14.817,2.969-97.7,0-97.7,0s-146.753-7.717-222.523,0c-13.684,1.394-27.531,3.5-41.108,1.241" transform="translate(-451.098 -217.255)" fill="#3bc589" opacity="0.85"/>
        <g id="Group_48" data-name="Group 48" transform="translate(89.37)" opacity="0.3" style="mix-blend-mode: screen;isolation: isolate">
          <g id="Group_47" data-name="Group 47">
            <path id="Path_39" data-name="Path 39" d="M548.225,246.185l-10.883,5.4c.3-.364.6-.72.9-1.082a99.006,99.006,0,0,0,9.7-7.435c3.029,2.067,5.033,5.352,7.794,7.731,3.233,2.788,7.664,3.486,11.167,5.9a10.053,10.053,0,0,0,2.354,1.371,17.356,17.356,0,0,0,2.224.428,15.535,15.535,0,0,1,4.819,2.193c3.318,2,6.5,4.252,9.719,6.445,1.218.83,2.962,2.334,4.761,3.65a16.073,16.073,0,0,1,1.275,4.025,68.11,68.11,0,0,0-10.592-8.715c-3.5-2.33-7.329-4.35-11.433-4.666-1.052-.082-2.352-.217-2.747-1.274-.156-.418-.119-.892-.244-1.322-.423-1.456-2.227-1.591-3.634-1.71a12.459,12.459,0,0,1-9.462-6.13,43.794,43.794,0,0,0,5.419,10.541C554.406,257.749,551.24,251.875,548.225,246.185Zm67.5,8.531a18.08,18.08,0,0,1,10.033-3.512c.443-3.977,4.3-6.258,7.689-7.883l7.965-3.82-1.189,3.33a13.163,13.163,0,0,0,4.483-4.618,7.73,7.73,0,0,1,1.327-1.941c1.413-1.274,4-1.133,4.552-3.031.305-1.053-.251-2.293.238-3.262.5-.985,1.725-1.1,2.747-1.293,3.763-.728,6.555-4.053,9.836-6.174a17,17,0,0,1,6.95-2.586,2.657,2.657,0,0,1,1.325.065,2.9,2.9,0,0,1,1.2,1.114c2.135,3.022,3.7,7.213,7.146,7.972a8.441,8.441,0,0,1,2.19.5,5.432,5.432,0,0,1,1.688,1.785,25.329,25.329,0,0,0,7.129,6.722,24.5,24.5,0,0,0-2.363-4.936,43.255,43.255,0,0,0,9.072,4.792,52.175,52.175,0,0,0-11.511-7.686c-5.653-2.564-11.059-12.7-14.887-12.992s-12.907,8.2-20.234,9.773c-1.51.325-3.381.9-3.629,2.574-.142.97.362,2.029-.032,2.911a2.648,2.648,0,0,1-1.472,1.187l-5.634,2.565a31.179,31.179,0,0,1-4.972,2.368,4.983,4.983,0,0,0-1.558,1.464,8.032,8.032,0,0,1-1.075,1.639c-.787.714-1.932.575-2.917.869-2.778.83-3.7,4.783-6.116,6.505-1.532,1.09-3.512,1.169-5.061,2.227A13.378,13.378,0,0,0,615.722,254.717Z" transform="translate(-537.342 -217.255)" fill="url(#linear-gradient)"/>
          </g>
        </g>
      </g>
      <g id="Group_52" data-name="Group 52">
        <path id="Path_40" data-name="Path 40" d="M194.667,341.269c8.026-14.981,20.873-26.136,33.426-36.929q5.18-4.455,10.362-8.909c4.488-3.86,8.978-7.72,13.6-11.39,13.384-10.624,28.065-18.977,40.995-30.374a6.217,6.217,0,0,1,.786-5.617,16.455,16.455,0,0,1,4.091-3.946c1.759-1.339,5.962-5.964,8.038-6.12,4.906-.367,8.1,8.815,12.4.159,1.323-2.664,1.766-5.823,3.467-8.225,2.958-4.177,8.943-5.017,11.484-9.5,1.208-2.13,1.655-5.068,3.761-6.112,1.849-.917,3.979.163,5.761,1.221l13.7,8.134a130.456,130.456,0,0,1,11.146,7.143c6.735,4.988,12.594,11.309,19.617,15.827,4.94,3.179,9,7.573,13.587,11.255,7.322,5.874,7.5,4.28,15.049,1.218,4.454-1.808,8.672-1.317,12.723-4.466,4.421-3.437,9.132-11.423,13.851-14.149a21.479,21.479,0,0,1,10.3,6.791c3.711,4.238,8.85,8.986,13.842,6.74l44.635,21.873c3.138,1.538,6.42,3.2,8.439,6.21,1.384,2.064,2.063,4.62,3.572,6.581,2.112,2.745,5.477,3.891,8.65,4.9l50.543,16.138c9.966,3.182,19.973,6.381,29.4,11.091,12.3,6.142,23.318,7.175,36.1,11.569,16.681,5.736,80.947,162.984,97.628,168.72,1.737.6,3.741,1.5,4.13,3.413.426,2.106-1.387,3.906-3.063,5.086-12.245,8.616-91.324-2.146-105.816,0-149.2,22.094-300.942-8.652-451.329,0" transform="translate(-189.542 -213.961)" fill="#1bb291"/>
        <g id="Group_51" data-name="Group 51" transform="translate(143.984 0.003)" opacity="0.3" style="mix-blend-mode: screen;isolation: isolate">
          <g id="Group_50" data-name="Group 50">
            <path id="Path_41" data-name="Path 41" d="M343.527,214.2c1.886-.726,4.011.36,5.8,1.428l14.511,8.652a138.155,138.155,0,0,1,11.81,7.6c5.959,4.43,11.273,9.847,17.2,14.312-4.761-2.587-9.426-5.4-14.076-8.217L368.2,231.579c-1.852-1.12-3.961-2.715-3.851-5.005l-9.7-3.131a38.114,38.114,0,0,1,4.835,9.965c-2.569-4.412-5.2-8.9-8.9-12.247C348.155,218.962,345.12,216.978,343.527,214.2Zm136.99,42.375c-5.289,2.389-10.734-2.661-14.666-7.17a22.755,22.755,0,0,0-10.917-7.223,12.773,12.773,0,0,0-1.342.919,15.093,15.093,0,0,1,6.34,4.5c.933,1.187,1.645,2.561,2.555,3.771a25.853,25.853,0,0,0,4.39,4.254l15.383,12.694q-.914-3.45-1.828-6.9c3.362-1.5,11.916,5.493,15.168,7.256-1.405-3.346-3.286-3.415-3.792-5.192,12.669,5.425,4.723,4.059,11.135,6.4a204.342,204.342,0,0,0,20.78,7.868C515.838,273.87,488.4,260.453,480.517,256.574Z" transform="translate(-343.527 -213.964)" fill="url(#linear-gradient)"/>
          </g>
        </g>
      </g>
    </g>
    <rect id="Rectangle_21" data-name="Rectangle 21" width="625.178" height="107.951" transform="translate(590 -1861.059)" fill="#1bb291"/>
  </g>
</svg>
