<svg xmlns="http://www.w3.org/2000/svg" width="620" height="229.245" viewBox="0 0 620 229.245">
  <path id="trees-layer-3" d="M.562,229.08,0,134.453a67.289,67.289,0,0,0,6.858-1.609l.454-1.373,14.073-12.123-11.011,2.841,2.262-6.846,10.692-9.211-8.363,2.158,6.636-20.1,6.828-5.882-5.342,1.38,6.586-19.946q-1.81-.566-3.566-1.219-2.831-1.065-5.488-2.361l-1.37.307-3.121-.2-2.6-.393V58.21l3.252-.688,2.6-.59,2.341-.786V55.066L19.9,53.788l-2.6.491-1.951.393-1.821.2-2.6-.2-2.082-.2-.78-.59L10.138,52.8l1.7-.392-2.6-1.081,2.731-.688h2.081l1.171-.983,1.3-.294H18.21l1.04-.885.394-.085q-1.017-.491-1.989-1.032l-2.308.429-1.821-.1H8.715l-1.951.1H2.081L0,47.99v-.778l.78-1.384,2.081-.688,2.082-.491,1.3-.393.78-1.081.651-.688,2.463.884,1.178-.2.121-.182q-.672-.6-1.3-1.224.639.609,1.323,1.187l.766-1.157,2.341,1.966.651-.294,1.951,1.572,2.211-1.671.2-1.417c-.146-.207-.291-.413-.435-.621l-2.625-.909-2.6-1.179,3.641-1.671,1.3-.786-1.3-1.376-1.821.2L14.307,36l-2.732-.786.26-.885-.78-.3-3.381-.688.39-.688,2.074-.688,1.309-1.18,2.341.983,1.951-.2L17.559,30.5l.911-1.376,2.211.2-.131-1.572-2.6-.787,2.471-.786H22.5l.911.884,1.04-.2.911-.688h.91l1.171.884,1.171.491,1.3-.688V25.388l1.821-.491v-.589l-.78-.787-.651-.294-1.95.393-1.171-.393,1.171-.885-1.431-.59-1.561-.294v-.688H27.7l1.691.2,1.43-.3,1.822.393,1.821.59,1.3-1.868-.26-.688-1.691-.393.26-1.277h1.691V13.006l1.3-.491.781.688,1.43.2,1.3.2,1.951.1.52-1.67L44.483,13.1l1.04,1.474.78,1.434,1.431.63,2.211-.63.78-1.238,1.691,1.416.853,1.238,2.008.786L57.1,16.74l-.52-2.063,1.3-1.474,1.43-.393.521,1.474.65,1.907,1.171.452,2.081-1.671,1.951-1.277,1.951-.885.52-1.376.651-.786,1.69.983L68.936,13.6l-.26.491.651,1.376,2.6-.294L73.489,13.5,75.7,12.81l1.821-1.277.52-.885,1.691,1.376,2.082.59-2.082.392-1.691,1.769,1.171,1.238h3.382l.91,1.809-.39,1.277.39,2.85-2.6.982,2.6.787,1.822.491,1.17,1.277,1.431,1.376,1.561-.787.911-1.081,2.471.688.65-.3,1.041-1.376,1.845-.294,1.276.688,2.211-.1,1.821.688,2.082,1.868,1.17.688,2.342.59h1.17l.911,2.162-2.211.688-2.992.491-.91.59-.261,2.26,1.691.491,3.382-.3,1.3,1.18,1.04,1.769,1.561.59,2.082,1.081-2.082.491-3.772,1.081L105.1,41.5l-1.171,2.26-2.731-.294-2.6-.393-2.862.491-3.641.392,1.43-2.456H91.958l-2.6.392-2.862.59-2.6.688v1.572l4.552,1.572,2.211.893,1.691,1.171L91.7,50.84,93,52.215,97.161,53l1.951.786-.131.491-3.512.2-4.552-.688L88.187,53.1l-1.951-1.081-2.861-.2-3.252.59L75.7,52.8l-3.772.59.26-.688,2.992-2.162,1.431-.491H73.619l-1.793-.379a72.283,72.283,0,0,1-9.436,8.87l.1,3.234,2.415.755h2.341l-.65.884-2.732.546H62.557l.284,9.257,1.022.22,1.821,1.376-1.431.59.26,1.377,2.342,1.374,2.341-.786.5-.162,3.317-10.047L77.959,80.25l.473-.127,2.341,1.966,2.471,1.376,1.951.491v.787H79.655l.214.566-2.117-.546-.9.621,4.407,3.8,1.851,1.066-.391.983-.688-.185,6.681,17.676-5.26-1.357,3.619,3.118,3.854-1.1,2.983-9.033,6.827-5.882L95.4,95.846l4.068-12.32-.045-.034.067-.035,1.752-5.307H99.983l-1.684.085H94.258l-1.8.17v-.671l.673-1.2,1.8-.593,1.8-.424,1.122-.339.674-.932.561-.594,2.125.763,1.018-.169.1-.157q-.582-.516-1.121-1.057.552.525,1.142,1.025l.477-.722,1.07-3.24,1.669,4.415.026-.012,1.684,1.357,1.908-1.442.171-1.223q-.189-.267-.374-.536l-2.265-.784-2.246-1.019,3.143-1.441,1.122-.679-1.122-1.187-1.57.17-1.236.339-2.357-.679.225-.763L102,66.362l-2.918-.593.337-.594,1.788-.594,1.13-1.018,2.021.848,1.685-.169,1.57-.932.786-1.187,1.908.169-.112-1.356-2.245-.679,2.132-.679h1.8l.786.764.9-.17.785-.594h.786l1.01.764,1.011.424,1.122-.594V58.9l1.571-.424v-.508l-.673-.679-.561-.254-1.684.338-1.01-.338,1.01-.763-1.234-.509-1.347-.254v-.594h2.021l1.459.17,1.234-.255,1.572.339,1.571.508,1.122-1.612-.224-.593-1.459-.339.224-1.1h1.459V48.214l1.122-.424.673.594,1.235.169,1.122.169,1.685.085.448-1.441,1.235.932.9,1.273.673,1.237,1.235.543,1.908-.543.673-1.067,1.46,1.221.735,1.067,1.733.679,1.571-1.272-.449-1.78,1.122-1.273,1.236-.339.448,1.272.562,1.646,1.01.389,1.8-1.441,1.684-1.1,1.684-.762.449-1.187.562-.679,1.459.848-1.347,1.7-.224.425.562,1.187,2.244-.254,1.347-1.443,1.909-.593,1.57-1.1.449-.763,1.459,1.187,1.8.508-1.8.339-1.459,1.527,1.011,1.067h2.918l.786,1.561-.337,1.1.337,2.46-2.245.848,2.245.678,1.571.425,1.011,1.1,1.234,1.188,1.347-.679.786-.933,2.133.594.561-.255.9-1.187,1.592-.255,1.1.594,1.908-.085,1.571.593,1.8,1.612,1.01.594,2.02.508h1.01l.786,1.865-1.908.594-2.581.424-.786.508-.225,1.951,1.46.424,2.918-.255,1.122,1.018.9,1.526,1.347.508,1.8.932-1.8.424-3.256.933-2.694.679-1.01,1.95-2.356-.255-2.245-.339-2.47.425-3.143.338,1.235-2.119h-1.347l-2.245.339-2.469.509-2.245.594V75.6l3.928,1.357,1.908.77,1.459,1.011-.562,2.119,1.124,1.187,3.591.679,1.683.679-.112.424-3.03.169-3.929-.593-2.356-.594-1.684-.932-2.47-.17-2.806.509-3.815.34-3.256.508.225-.594,2.581-1.866,1.236-.424h-2.583l-1.546-.326a62.479,62.479,0,0,1-8.142,7.655l.086,2.791,2.083.651h2.02l-.562.762-2.357.472h-1.127l.246,7.988.881.19,1.571,1.188-1.235.509.225,1.188,2.021,1.186,2.02-.679,1.571-.508,1.57,2.059,1.46,1.334h1.459l1.908-.51,2.02,1.7.137.076.122-.372.211.558,1.663.925,1.683.424v.679H163.4l1.255,3.323-1.442-.373,1.929,1.662h0l.051.134,2.057.182.244-.738,2.223-1.915-1.739.449,2.768-8.383,2.232,5.908L171.536,110l1.929,1.661h0l1.54,4.075,1.306.115,2.362-7.156,3.982-3.431-3.115.8L184.5,91.05l4,10.581-2.582-.666,3.455,2.976h0l2.554,6.757,1.562-4.729,6.655-4.737-5.476,1.167,7.072-21.417,4.885,12.927-3.105-.661,3.9,2.777h0L215,116.084l-4.957-1.057,6.232,4.436.841,2.226,1.847.281,3.825-3.295-3.115.8,4.958-15.016,4,10.582-2.583-.666,3.455,2.975h0l2.494,6.6,13.938,2.123,2.751-8.329,7.2-5.122-5.925,1.263,1.969-5.964,6.655-4.736-5.476,1.167,7.072-21.418,4.884,12.928-3.1-.661,3.9,2.777h0l7.579,20.057-4.957-1.058,6.233,4.436.632,1.67,4.581-13.875,4,10.581-2.583-.666L284.8,122.1v0l1.616,4.276,1.478-1.274-1.74.45,2.768-8.384,2.233,5.909-1.442-.373,1.929,1.662,2.393,6.333-1.712-.443,2.29,1.974.281.742-2.413-.623,1.148.99,2.095.319,6.594-19.966,7.2-5.122-5.925,1.263,1.968-5.963,6.656-4.736-5.477,1.166,7.072-21.417,4.885,12.927-3.105-.661,3.9,2.777v0l7.578,20.056-4.957-1.057,5.4,3.843.323-.98,7.2-5.122-5.925,1.263,1.968-5.963,5.689-4.048-1.438-.175-3.072.654,7.072-21.417,4.885,12.927-3.105-.661,3.9,2.777h0l.037.1h1.532l2.372.384,1.164-2.525a32.678,32.678,0,0,0-6.449-3.2,32.88,32.88,0,0,1,6.473,3.146L352.515,91h2.542l-1.185,2.688,2.033,1.921,3.05-1.28,2.542.768.509,1.536-1.864,2.176,3.389.9,3.262-1.424.972.414.554-.942,3.3-.48,3.3-.961L373.4,94.4l-1.144-2.112,2.288.383,2.161.192.889-.768,5.211-1.248h2.084l.121-3.933q-1.821-1.432-3.454-2.989l-.275,1.544-1.652.576-1.144-.576-1.906-1.152-1.144-1.345-1.144.384-1.672.864-3.793-.864-.254-1.248-3.432.864h-1.017l-2.161,1.248-3.3.672-2.288-.672-.508-1.248-3.177-.576-2.543.193-2.415-.481.382-1.535,2.415-.481,1.144-.671,1.017-1.057-.636-.864-3.177-.576-2.288-.193,3.05-1.44,1.144-.545,3.686-.944h1.016l2.416.432,2.415-1.344.762-1.633,2.033.192-2.542-1.728.635-1.536,2.415.1.59-.326a11.772,11.772,0,0,1-1.351-1.818,11.923,11.923,0,0,0,1.384,1.8l1.411-.781-.127-1.948,2.542,1.948,1.906-1.084.509-2.016-.382-1.248,1.145-1.34-.89-2.693,2.268-.384,1.544-1.152,2.161.1,1.4-2.421,1.651,1.557,1.017,1.824-.89,1.536,2.416,1.057,1.652.58,1.525,1.052,3.178-2.112,1.016-1.2,1.4-.625,1.017-1.056L395.9,59.2l2.905-1.1,1.035.288,1.4,2.017,2.288,1.06h4.194l.89,2.588-3.051.288-3.431,1.152-2.416,1.66h7.117l1.78-1.275,1.863.288,4.873.987-2.033,1.03-3.432.576-2.923,1.717h-2.319l-1.112,1.48,1.112.547,3.972,1.3h3.686l2.034,1.873,2.415.96,1.016-.193-1.271.769-2.542-.193-2.669.288-2.034.672-3.685-.1-2.16,2.69L402.252,82.3l-2.288-1.728-2.6-2.594-3.124-1.152-1.525-.672-1.833.16q-.074.27-.158.539a16.761,16.761,0,0,1-.677,1.808l2.288,1.525-3.279.385q-.46.774-1,1.517c-.148.208-.31.409-.465.614s-.327.4-.5.6a3.683,3.683,0,0,1-.638.6c-.054.039-.111.076-.17.112l.21,6.826h.457l2.08.624,1.271-.624,1.652-1.152V87.868l.89-1.824h2.288l2.415,1.728,2.16-.481L399.2,84.7l1.144-.384,3.05-.384,1.779-2.5,1.066-1.824,2.365.384.635.577.889,1.823v.368l1.695-5.132,2.961,7.836h.3l2.669.384,2.033,2.7,2.327,1.138.634.394,1.721-5.215,6.656-4.736L425.652,81.3l7.072-21.418,4.885,12.928-3.106-.661,3.9,2.777v0l6.332,16.758.245-.741,3.982-3.43-3.116.8,4.959-15.016,4,10.582-2.583-.667L455.68,86.2h0l2.583,6.834,2.256-6.835,3.982-3.431-3.115.8,4.958-15.016,4,10.581-2.583-.666,3.455,2.976h0l2.511,6.643,2.613-2.251-3.116.8,4.958-15.016,4,10.581-2.581-.666,3.454,2.976h0l.3.8,1.5-1.291-1.74.449,2.768-8.384L488.111,82l-1.441-.373,1.929,1.662,2.394,6.333-1.713-.442,1.728,1.489,9.894-7.04-9.887,2.108,6.022-18.233-.709.017,1.014-.94.637-1.931,6.926-4.929-.223-.088-5.43,1.158,1.969-5.964,6.332-4.505-1.076.067-4.077.869.228-.69-2.36-.4.169-.9,3.01-1.186.29-.877-.418-.369-6.99.384-4.194-.512,6.1-1.283,3.188-2.062v-2.16h2.913l1.313.212,1.02-3.091a33.009,33.009,0,0,0-5.246-2.457,33.154,33.154,0,0,1,5.26,2.416l2.79-8.45,2.362,6.249h.974l-.525,1.189,1.247,3.3.125.118,3.05-1.281,2.542.769.508,1.536L517.892,43.9l3.389.9,3.262-1.425.971.413.554-.94,3.3-.481,3.3-.96-1.526-1.92-1.144-2.113,2.288.384,2.161.192.889-.768,5.21-1.248h2.085L542.763,32q-1.821-1.434-3.455-2.99l-.275,1.544-1.652.576-1.144-.576L534.33,29.4l-1.144-1.345-1.144.384-1.672.864-3.793-.864-.255-1.248-3.432.864h-1.016l-2.161,1.248-3.3.672-2.287-.672-.508-1.248-3.178-.576-2.542.192-2.416-.48.382-1.536,2.415-.481,1.144-.671,1.017-1.057-.636-.865-3.177-.576-2.287-.192,3.05-1.44,1.144-.545,3.685-.945h1.017l2.415.433,2.415-1.344.762-1.633,2.034.192-2.542-1.728.635-1.536,2.415.1.59-.326a11.769,11.769,0,0,1-1.351-1.818,11.867,11.867,0,0,0,1.384,1.8l1.41-.78-.127-1.948,2.543,1.948,1.906-1.084.508-2.016-.382-1.248,1.144-1.34L528.1,3.862l2.267-.384,1.545-1.152,2.16.1L535.474,0l1.652,1.557,1.017,1.824-.89,1.536,2.415,1.057,1.652.581,1.525,1.052,3.178-2.113,1.017-1.2,1.4-.625,1.017-1.056,4.194,1.68,2.905-1.1,1.035.288,1.4,2.016,2.288,1.061h4.194l.89,2.588-3.051.288-3.431,1.152-2.415,1.66h7.117l1.779-1.275,1.863.288,4.873.987-2.033,1.03-3.432.576-2.923,1.717h-2.318l-1.113,1.48,1.113.547,3.971,1.3h3.685l2.034,1.874,2.415.959,1.017-.192-1.271.769-2.542-.193-2.669.288-2.034.672-3.686-.1-2.16,2.689L560,27.387l-2.288-1.728-2.6-2.593L552,21.914l-1.525-.672-1.833.16q-.074.27-.157.539a17.029,17.029,0,0,1-.678,1.807h0l2.287,1.525-3.277.384c-.307.515-.642,1.022-1,1.518-.148.208-.31.409-.465.614s-.327.4-.5.6a3.715,3.715,0,0,1-.638.6c-.053.039-.111.076-.17.112l.21,6.826h.456l2.08.624,1.272-.624,1.652-1.152V32.956l.889-1.824h2.288l2.415,1.729,2.16-.481-.508-2.592L558.1,29.4l3.05-.384,1.78-2.5,1.066-1.824,2.365.384.635.576.89,1.824v4.129l3.051-1.057h1.905l2.669.384,2.034,2.7,2.326,1.138,2.63,1.632,2.542-1.536,3.178,2.3,2.627,2.075,3.475-10.524,4,10.582-2.582-.666,3.455,2.975h0l.971,2.569,1.4,1.241v2.02l-.17,0,2,5.279,1.382,1.157-2.19.157,1.933,1.665.5,1.329L600.7,55.925l5.782,4.98,1.753,4.643-5.41-1.4,7.24,6.235.12.318L620,68.437V229.245ZM300.9,134.453l2.167-.234,2.169-1.543-6.667,1.421Zm-27.485-5.526.448-1.355-3.359-.715Zm78.025-2.76.869.618,1.229-1.058-.214-.046Zm30.3-.186,2.078-.2.079-2.582-1.726-.662-.5-.221.989,2.616-3.067-.792Zm-106.033-1.94.409,1.083,1.97-1.7Zm49.553-.44.173-.521-1.292-.275Zm64.909-2.715.357-.308-.22-.062Zm-2.9-5.072h0l.034,1.094,1.023.409.561-1.7Zm-36.977,1.1.4-1.122q-.728-.2-1.442-.42l-1.615-.344Zm-286.146-1.4.012.36.6-.518Zm286.574.214.015-.041-.835-.178Q350.3,115.623,350.715,115.727ZM57.11,115.337l.364-1.1-2.345-.6Zm134.15-.266.417-.3-1.086-.28Zm189.132-1.277,1.779,1.057,2-.718.031-.987-2.035-.311-1.419-.165Zm-188.066-2.031.76,2.009,4.356-3.1Zm156.2-6.444,3.176,8.406,2.508-.6.414.342,2.06-1.775-3.116.8,1.345-4.076h-1.042l-1.695-1.153,2.033-1.152-2.033-1.024Zm14.872,5.051h0l1.175,3.11.568-.166,1.2-1.888c-1.445-.973-2.845-1.98-4.216-3.009h-1Zm-205.16.682-.224.933,2.132,1.1.411.1,1.014-3.072h-1.986ZM58.01,112.609l.688-2.083.558-18.156-2.221-.062-2.8-1.179-1.951-1.081-2.081-.885-.521-.263,3.067,8.121-2.582-.667,3.455,2.976h0l4.287,11.343-3.067-.792Zm318.9-.287.047-.353-.1-.864-1.935-.5Zm-248.337-.69.1-.3-1.426-.3.788.561Zm252.706-.623-.183.573,3.158-.119.155-5.035-.969-.028-3.94,1.057-3.713-.725,1.173,3.106,2.286-.173Zm-11.344.49,2.517-7.624-3.809.828v.769l2.172,2.945h-2.172l-1.854-1.793-1.567-.512.678,2.3h-3.257c1.31.936,2.644,1.851,4.013,2.735l.289.186,2.26-.329Zm17.042-5,.138,4.5,2.173-.854.254-1.44,1.678-.058,1.651-1.421.587-1.527-1.422.367.143-.434h-1.747Zm19.253,1.742.023-.017-.012,0Zm-275.567-2.194,1.88-1.619-1.739.449,2.4-7.271-.674-.124-4.264-.848-2.245-.425-.52-2.392-.441-.081c-.319-.055-.634-.118-.949-.184l.537,1.423-2.36-.5,2.966,2.111h0l3.475,9.2,1.332-.073Zm-87.95-1.313.036-.11-.233-.06ZM375.562,103.2l-1.024.222.481,1.274,1.56-1.5-.04-.175ZM140.27,104.509l.049-.121-.27-.069Zm302.873-.644.041-.035-.13-.028Zm-307.415-.658,2.851-8.635a20.685,20.685,0,0,1-2.82.22c-.3.005-.6.005-.9,0L135,96.126l.224.509,1.46,1.611-2.633-.484,1.753,4.64-1.442-.372Zm-20-1.812.594,1.571,3.407-2.425Zm22.968-6.841,2.65,7.012.339-.351,2.426-1.1.144-4.688a25.876,25.876,0,0,1-2.608-.558c-.264-.065-.517-.15-.775-.225s-.516-.152-.765-.241l-.237-.081C139.478,94.415,139.086,94.492,138.692,94.554ZM45.4,101.041l.529.456.983-.847Zm66.85-8.838v0l3.393,8.978,2.977-9.015q-1.845-.56-3.629-1.223-2.442-.919-4.736-2.037l-1.183.265-.368-.023Zm-67.992,7.854.409-1.238-2.635-.68ZM457.887,97.6l1.275,1.1,2.364-2.038L459.8,97.1l.165.436-.926-.238ZM64.774,90.835l-1.381.332.177,5.778,6.285-5.414-5.341,1.379.765-2.317Zm392.232,6,.019-.059-.125-.032Zm-13.57-1.2.37-1.12-2.776-.592ZM45.771,95.477l2.608-7.9L48,86.413l2.6-.786-2.732-1.18-2.6.983-2.861.3-.364-.125Zm92.6-2.645c.246.1.492.191.741.283l.715.257.727.233c.24.081.488.149.734.216s.49.143.741.2c.739.187,1.491.331,2.25.446l.07-2.278h-4.972Zm-1.651,1.055-1.952.091h0c.318,0,.634-.012.948-.026a19.619,19.619,0,0,0,2.48-.255c-.239-.1-.478-.2-.714-.3Zm-14.4-5.077,1.58,4.178c.439.081.878.16,1.323.224l.154.024-.7-3.214,1.234-.849-2.918-.508Zm8.194,2.484,1.908.895,1.762-.379c-.366-.2-.734-.389-1.093-.59s-.739-.41-1.105-.617Zm-18.409-2.8-1.7.38q2.295,1.023,4.721,1.854,1.777.6,3.606,1.1l.8-2.431-3.28.542-.224-.679-2.581-.085,2.245-.932-.449-.764-1.683-.254Zm377.661,3.064.2-.144-.529-.137Zm-353.079-3.4-2.02,1.187-1.832.861c.269.143.539.286.809.427.438.233.886.454,1.33.679l.469.228,1.133-.245,2.693-.679,2.02.508,1.909.085,1.208-.76.208-6.769c-.079-.048-.155-.1-.226-.148a4.925,4.925,0,0,1-.845-.8c-.226-.268-.441-.531-.658-.8s-.42-.538-.617-.813a25.183,25.183,0,0,1-2.087-3.385l0-.005h-.91l-2.805-.77L135,78.827l-.225,2.459-.673.085,3.144-.085,1.184-.255,1.06.763v.764l-3.592.254-1.011.849L132.645,84l-.9,1.95,1.234.933,3.48.593,1.122-.424Zm286.9,2.449,1.159.72,2.47-1.493Zm3.732-.8.384.279.724-.515ZM145.867,73.335l.4,12.876a63.049,63.049,0,0,0,7.42-6.614l-1.506-.515h-1.684l-1.235-1.35,2.806-1.534,1.235-1.018-1.8-1.95-3.929-.763Zm236.3,7.236-1.652.863,1.178,1.707q1.589,1.451,3.345,2.788l.188-6.125-1.534-.386Zm-273.2,2.961.891,2.36,1.341-.45v-.932l-1.571-1.1ZM555.247,80.7l.371.319.791,2.094.62-.143,4.526-3.9ZM386.258,83.084c.05-.046.1-.095.149-.144.176-.182.354-.37.527-.556s.342-.379.5-.573q.556-.657,1.046-1.347l-2.319-.435ZM143.087,80.754c.213.257.445.506.666.759s.467.5.7.738c.065.065.131.129.2.19l.265-8.622L142.522,75.1l-2.874.411,2.649.945.225,1.28h-1.644A26.2,26.2,0,0,0,143.087,80.754ZM39.94,80.047v0l.718,1.9.7.139.39-2.359,1.821-.1,1.041.59,1.3.494h.911l3.772-.788.13-1.474,1.04-.2,1.5.913h1.748l.78-1.9V75.7l1.236-1.278,2.812-1.27.167-5.433a30.047,30.047,0,0,1-3.022-.646c-.306-.076-.6-.175-.9-.261s-.6-.176-.886-.28l-.275-.094a22.23,22.23,0,0,1-4.759.542q-.525.009-1.046,0l.167,1.545.26.59,1.691,1.868L46.435,70.1l-4.943-.983-2.6-.491-.6-2.773-.51-.094c-.811-.14-1.607-.325-2.408-.491q-.556-.124-1.108-.256l4.183,11.074-4.428-1.142Zm83.172.105.022.082h4.022l2.024,1.042,3.956-.556-.368-1.111h-5.243l-.736-1.946,3.22.625,2.576-.765-.46-.278-2.3-1.042L128,76.342l-1.86.348-1.932-.14-2.233-.137Q122.624,78.268,123.112,80.152Zm432.055.483,1.284-3.893.265-.228h-2.8l.243.645-2.5-.645h-1.275ZM113.541,76.9l.608,1.665q.227.219.461.434l1.346.334h3.011l2.822.134v.77h.979l-.008-.032q-.455-1.914-1.076-3.806l-.876-.054.756-.305q-.258-.763-.541-1.519-.242-.645-.5-1.286l-2.273.261h-2.681l.827,1.39-4.892.842.006.007,2.035-.3Zm-6.652,1.116.6,1.577h.691l.9-.763.341-.073q-.879-.425-1.717-.891Zm1.1-.2q.876.456,1.789.868l.085-.019-1.459-.926Zm281.43-1.369.482,1.686q.329-.652.6-1.322c.064-.157.124-.315.184-.473Zm147.3,1.017.676.582.621-.535-.741-.192ZM121.269,73.145l-.537.062q.271.628.522,1.26.29.733.556,1.47l1.575-.637,3.771-1.189-1.332-1.66H123.66Zm401.522,2.742.46-1.391-3.448-.734Zm-411.642-.1.131-.019,0,0Zm480.758-.862,2.79-.644H591.16ZM109.379,73.04l.032-.233-.275-.1Zm415.929-4.45v.445l-.7.856.318.841,2.988-2.574-.287-.166Zm10.653.4.456,1.208.608-1.842Zm16.514-2.155-2.021.522.383,1.012,1.823-1.57Zm-27.167,1.432.445-1.348-.445-.257ZM133.4,67.272h1.472l3.322.868,1.012-1.529,1.544-.1q-.458-.86-.874-1.732l-3.89-.045-3.185.9-2.885-1.112-1.1-.348L126.7,63.137h-1.288l-.275.695,2.3,1.39-2.484.626-4.139.556,2.759.208,2.637.661,2.146-.313,1.616-.555Zm403.727.772.481-1.457-.481-.215Zm36.718-1.122.133-.115-.383-.1ZM53.2,64.71q.428.169.86.328l.829.3.842.271c.279.094.565.172.85.25s.569.166.86.231c.856.216,1.728.383,2.606.518l.081-2.641h-5.76Zm88.455,1.744.77-.05,2.721-.108,0-.145-3.471-.512.379-.833-1.374-.015C140.993,65.349,141.319,65.9,141.656,66.454Zm3.994-.179.272-.011-.274-.041Zm-94.361-.343-2.262.105h0c.367,0,.733-.013,1.1-.031A22.762,22.762,0,0,0,53,65.714q-.416-.169-.827-.346ZM575.8,65.226l0,.007.013-.011ZM32.552,60.491l1.484,3.929q.761.165,1.528.312c.8.142,1.591.3,2.4.418l.178.028-.811-3.724,1.431-.983-3.381-.59Zm554.984,4.27.293.252.441-.381-.117-.03ZM44.094,62.927l2.21,1.037,2.043-.44c-.425-.226-.85-.45-1.266-.683s-.857-.474-1.281-.715ZM22.762,59.684l-1.966.441q2.658,1.184,5.469,2.147,1.744.587,3.533,1.093l.83-2.515-3.055.5-.26-.786-2.992-.1,2.6-1.081L26.4,58.5l-1.951-.294Zm28.485-.392-2.341,1.375-2.124,1q.467.25.938.495c.508.271,1.027.526,1.542.788.182.087.362.175.543.264l1.313-.284,3.121-.787,2.342.59,2.21.1,1.4-.882.241-7.844c-.092-.055-.18-.112-.262-.171a5.751,5.751,0,0,1-.979-.923c-.261-.311-.511-.616-.762-.925s-.488-.624-.715-.942A29.339,29.339,0,0,1,55.3,47.219l0-.006H54.239l-3.252-.893L49.3,48.481l-.26,2.85-.78.1,3.642-.1,1.373-.3,1.228.884V52.8l-4.162.3-1.171.983-2.6.393-1.04,2.26,1.431,1.081,4.032.688,1.3-.491Zm106.828.326c-.343,1.108-.62,2.228-.85,3.353l1.688.167,1.267-1.042,2.668-.556,6.439.486,3.312-1.042-8.464-.208-.275-.9-2.3-.556S159.251,59.522,158.075,59.617Zm-.654.045c-.276,0-.92,1.182-1.288,1.251s-1.012.625-1.656.625-4.692.695-4.692.695l7.123.706c.261-1.11.568-2.213.939-3.3C157.623,59.652,157.469,59.662,157.421,59.662Zm391.018-.3-1.016,1.248-.355.043,1.267,1.091h0l.368.976.774.086,2.611-2.249-.345.052-.248-.94-2.56.661.572-1.734Zm-10.3-.481,1.679,1,.62-1.877-.52-.079-1.419-.165Zm-33.439.751.217.082.257-.183Zm15.8-.584.1.026,2.288-.672,1.2-1.888c-1.444-.973-2.845-1.981-4.216-3.009h-1.465Zm52.6-1.044.4.707.365-1.106Q573.489,57.807,573.1,58.005Zm-39.282.3.762-.288.127-.96-.254-2.112L537,54.754l2.033,1.344-.184.573,2.057-.077,1.213-3.674.043-1.4-.97-.028-3.94,1.057-3.94-.769-3.3-.576,2.288-.96,2.033-1.951-.04-.175-.977.175-6.916,1.5v.769l2.171,2.945H526.4l-1.854-1.793-1.567-.512.678,2.3H520.4c1.31.936,2.642,1.851,4.011,2.735l.289.185,2.262-.329,1.936,1.3,1.253-3.794,1.313,3.477.328-.022Zm54.61-.556,0,.009.056-.049ZM572.2,55.33l.131.791.04.035h0l.545,1.444q.568-.27,1.13-.545l.759-2.3.978-.842-1.043-.219ZM61.886,42.117l.458,14.92a73.078,73.078,0,0,0,8.6-7.664l-1.745-.6H67.245l-1.43-1.564,3.252-1.778,1.43-1.179L68.416,42l-4.552-.885ZM544.73,51.59l.021.673,1.273,3.37,1.015-.4.255-1.44,2.8-.1,1.144-2.977h-3.05ZM58.665,50.713c.247.3.516.587.772.88s.54.576.81.855c.076.076.152.149.229.22l.307-9.992-2.773,1.48-3.33.477,3.07,1.1.26,1.482H56.1A30.046,30.046,0,0,0,58.665,50.713Zm541.8,1.513.122,0-.18-.047ZM17.989,47.3q1.014.528,2.073,1l.1-.022L18.47,47.212ZM19.6,41.774l.038-.269-.319-.11ZM539.922,25.659l-1.651.864,1.175,1.705q1.59,1.451,3.348,2.79l.188-6.125-1.534-.386Zm4.089,2.514c.05-.046.1-.094.149-.143.176-.183.354-.371.527-.557s.343-.379.5-.573q.556-.657,1.046-1.348l-2.319-.434Zm3.156-6.643.483,1.685q.328-.652.6-1.321c.064-.157.124-.315.183-.473Z" fill="#00475d"/>
</svg>
